<?xml version="1.0" encoding="UTF-8" standalone="no"?>
<!-- Uploaded to: SVG Repo, www.svgrepo.com, Generator: SVG Repo Mixer Tools -->

<svg
  version="1.0"
  id="Layer_1"
  width="588"
  height="435.22244"
  viewBox="0 0 47.04 34.817796"
  enable-background="new 0 0 64 64"
  xml:space="preserve"
  sodipodi:docname="tubepen_logo.svg"
  inkscape:version="1.2.1 (9c6d41e410, 2022-07-14)"
  xmlns:inkscape="http://www.inkscape.org/namespaces/inkscape"
  xmlns:sodipodi="http://sodipodi.sourceforge.net/DTD/sodipodi-0.dtd"
  xmlns="http://www.w3.org/2000/svg"
  xmlns:svg="http://www.w3.org/2000/svg"><defs
   id="defs7">
         </defs><sodipodi:namedview
   id="namedview5"
   pagecolor="#ffffff"
   bordercolor="#000000"
   borderopacity="0.25"
   inkscape:showpageshadow="2"
   inkscape:pageopacity="0.0"
   inkscape:pagecheckerboard="0"
   inkscape:deskcolor="#d1d1d1"
   showgrid="false"
   showguides="true"
   inkscape:zoom="1.005"
   inkscape:cx="193.53234"
   inkscape:cy="344.77612"
   inkscape:window-width="1920"
   inkscape:window-height="991"
   inkscape:window-x="-9"
   inkscape:window-y="-9"
   inkscape:window-maximized="1"
   inkscape:current-layer="Layer_1" />

<g
   id="g1897"
   transform="matrix(6.3953041,0,0,6.8220093,56.101052,7.8569437)"
   style="fill:#ef4444;fill-opacity:1;stroke:#ffffff;stroke-width:0.0609762"><rect
     style="fill:#ef4444;fill-opacity:1;stroke:#ffffff;stroke-width:0.0609762"
     id="rect1626"
     width="4.0597014"
     height="3.60199"
     x="-7.0845771"
     y="-0.51741296" /><g
     id="g1026"
     style="display:inherit;fill:#ef4444;fill-opacity:1;stroke:#ffffff;stroke-width:0.243726"
     transform="matrix(0.25018357,0,0,0.25018357,-8.7221891,-1.1016685)"><path
       d="m 14.4848,20 c 0,0 9.0847,0 11.3381,-0.6 1.2688,-0.34 2.223,-1.32 2.5579,-2.53 C 29,14.65 29,9.98 29,9.98 29,9.98 29,5.34 28.3808,3.14 28.0459,1.9 27.0917,0.94 25.8229,0.61 23.5695,0 14.4848,0 14.4848,0 14.4848,0 5.42037,0 3.17711,0.61 1.9286,0.94 0.954148,1.9 0.59888,3.14 0,5.34 0,9.98 0,9.98 c 0,0 0,4.67 0.59888,6.89 0.355268,1.21 1.32972,2.19 2.57823,2.53 C 5.42037,20 14.4848,20 14.4848,20 Z"
       fill="#ff0033"
       id="path1022"
       style="fill:#ef4444;fill-opacity:1;stroke:#000000;stroke-width:0.2"
       sodipodi:nodetypes="ccccccccccccc" /></g></g><path
   style="fill:#ffffff;stroke-width:0.248188"
   d="M 38.585432,21.561703 37.847433,22.80572 25.56038,15.524852 13.273328,8.2439849 14.019779,6.9829578 14.766228,5.7219295 27.038189,12.993855 c 6.749578,3.999562 12.274949,7.283607 12.278602,7.297878 0.0036,0.01433 -0.325444,0.585772 -0.731389,1.269953 z"
   id="path906-8" /><path
   style="fill:#ffffff;stroke-width:0.248188"
   d="m 36.306628,25.407335 -0.898846,1.515732 -12.28725,-7.28115 -12.287251,-7.28115 0.898317,-1.515964 0.898315,-1.5159624 12.287782,7.2813794 12.287782,7.281379 z"
   id="path910-4" /><path
   style="fill:#ffffff;stroke-width:0.248188"
   d="m 34.018051,29.269454 -0.72857,1.228128 -12.286973,-7.280986 -12.286974,-7.280985 0.7369332,-1.245022 0.7369338,-1.24502 12.271985,7.271905 c 6.749582,3.999564 12.274941,7.283637 12.27861,7.297881 0.0036,0.01433 -0.321194,0.578622 -0.72195,1.254069 z"
   id="path912-1" /><path
   style="fill:#ffffff;stroke-width:0.35099"
   d="m 42.241097,28.918997 -7.736256,2.094085 2.969174,-5.009911 2.969174,-5.00991 z"
   id="path1367-1"
   sodipodi:nodetypes="ccccc" /><path
   style="fill:#ffffff;stroke-width:0.35099"
   d="M 10.596121,10.170382 7.5862104,15.249111 5.900516,14.243161 C 4.4605397,13.383846 4.1970552,13.198833 4.0930187,12.973785 3.8331851,12.411831 3.8188458,12.44164 6.6062635,7.7482786 8.9285532,3.838081 9.2463763,3.3385899 9.4809041,3.2310512 9.9953729,2.9950764 10.196319,3.0666524 11.958207,4.1130111 l 1.647826,0.978646 z"
   id="path1511-3" /></svg>